<svg xmlns="http://www.w3.org/2000/svg" width="23" height="27" viewBox="0 0 23 27" fill="none">
  <path d="M19.1979 22.4946H3.80225C2.99238 22.4935 2.21597 22.1153 1.64331 21.4431C1.07065 20.7708 0.74851 19.8594 0.747559 18.9087V8.0918C0.74851 7.14109 1.07065 6.22964 1.64331 5.55739C2.21597 4.88514 2.99238 4.50698 3.80225 4.50586H19.1979C20.0077 4.50698 20.7842 4.88514 21.3568 5.55739C21.9295 6.22964 22.2516 7.14109 22.2526 8.0918V18.9087C22.2516 19.8594 21.9295 20.7708 21.3568 21.4431C20.7842 22.1153 20.0077 22.4935 19.1979 22.4946ZM3.80225 5.77148C3.27803 5.77148 2.77528 6.01594 2.40461 6.45109C2.03393 6.88623 1.82568 7.47641 1.82568 8.0918V18.9087C1.82568 19.5241 2.03393 20.1142 2.40461 20.5494C2.77528 20.9845 3.27803 21.229 3.80225 21.229H19.1979C19.7221 21.229 20.2248 20.9845 20.5955 20.5494C20.9662 20.1142 21.1744 19.5241 21.1744 18.9087V8.0918C21.1744 7.47641 20.9662 6.88623 20.5955 6.45109C20.2248 6.01594 19.7221 5.77148 19.1979 5.77148H3.80225Z" fill="#9E9898"/>
  <path d="M11.5 16.0647C10.835 16.0659 10.1878 15.8127 9.65644 15.3433L1.26503 7.89297C1.20574 7.84413 1.15545 7.78175 1.11715 7.70958C1.07886 7.6374 1.05334 7.55691 1.04214 7.4729C1.03093 7.3889 1.03426 7.3031 1.05193 7.22064C1.0696 7.13817 1.10124 7.06074 1.14497 6.99295C1.1887 6.92517 1.24362 6.86842 1.30645 6.82611C1.36928 6.78379 1.43873 6.75678 1.51065 6.74667C1.58257 6.73657 1.65548 6.74358 1.72504 6.76729C1.7946 6.79101 1.85938 6.83094 1.9155 6.88469L10.3069 14.3434C10.6515 14.6454 11.07 14.8086 11.5 14.8086C11.9301 14.8086 12.3486 14.6454 12.6932 14.3434L21.0846 6.88469C21.1407 6.83094 21.2055 6.79101 21.275 6.76729C21.3446 6.74358 21.4175 6.73657 21.4894 6.74667C21.5613 6.75678 21.6308 6.78379 21.6936 6.82611C21.7564 6.86842 21.8114 6.92517 21.8551 6.99295C21.8988 7.06074 21.9305 7.13817 21.9481 7.22064C21.9658 7.3031 21.9691 7.3889 21.9579 7.4729C21.9467 7.55691 21.9212 7.6374 21.8829 7.70958C21.8446 7.78175 21.7943 7.84413 21.735 7.89297L13.3436 15.3433C12.8123 15.8127 12.165 16.0659 11.5 16.0647Z" fill="#9E9898"/>
  <path d="M1.49859 20.7312C1.38926 20.7314 1.28247 20.6926 1.19238 20.6198C1.10229 20.5471 1.03316 20.444 0.994178 20.324C0.955191 20.2041 0.948185 20.0731 0.97409 19.9485C0.999995 19.8238 1.05759 19.7113 1.13922 19.6259L7.75172 12.7029C7.85847 12.591 7.99871 12.5335 8.14159 12.543C8.28447 12.5525 8.41828 12.6282 8.51359 12.7535C8.60891 12.8789 8.65791 13.0435 8.64982 13.2112C8.64173 13.3789 8.57722 13.536 8.47047 13.6479L1.85797 20.5709C1.75977 20.6758 1.63135 20.7331 1.49859 20.7312ZM21.5014 20.7312C21.3687 20.7331 21.2402 20.6758 21.142 20.5709L14.5295 13.6479C14.4228 13.536 14.3583 13.3789 14.3502 13.2112C14.3421 13.0435 14.3911 12.8789 14.4864 12.7535C14.5817 12.6282 14.7155 12.5525 14.8584 12.543C15.0013 12.5335 15.1415 12.591 15.2483 12.7029L21.8572 19.6259C21.9388 19.7113 21.9964 19.8238 22.0223 19.9485C22.0482 20.0731 22.0412 20.2041 22.0022 20.324C21.9632 20.444 21.8941 20.5471 21.804 20.6198C21.7139 20.6926 21.6071 20.7314 21.4978 20.7312H21.5014Z" fill="#9E9898"/>
</svg>