<svg xmlns="http://www.w3.org/2000/svg" data-name="Layer 62" viewBox="0 0 46.41 46.41" id="mail">
<path fill="white" d="M30.19 10.2v1.38h1.38l-1.38-1.38zM36.85 19.4l-1.93-1.46v2.66l1.93-1.2z"></path>
<path fill="white" d="M32.95 21.82v-8.28h-3.76a1 1 0 0 1-1-1V8.79H13.45v13l9.75 6.06ZM17.1 16.09h12.2a1 1 0 1 1 0 2H17.1a1 1 0 0 1 0-2Zm-1 4.4a1 1 0 0 1 1-1h6.09a1 1 0 0 1 0 2h-6.1a1 1 0 0 1-.97-1Z"></path>
<path fill="white" d="M39.86 0H6.54A6.54 6.54 0 0 0 0 6.54v33.33a6.54 6.54 0 0 0 6.54 6.54h33.32a6.54 6.54 0 0 0 6.55-6.54V6.54A6.54 6.54 0 0 0 39.86 0Zm-.3 38.58a1 1 0 0 1-1 1H7.83a1 1 0 0 1-1-1V19.43a.28.28 0 0 1 0-.09.24.24 0 0 1 0-.08v-.14a.36.36 0 0 1 0-.09h.05l.06-.09h.05l4.25-3.22V8.07a1 1 0 0 1 1-1h17.13l.24.08h.05a1.16 1.16 0 0 1 .21.16l4.72 4.72a.92.92 0 0 1 .17.22.93.93 0 0 1 .11.44v2.92l4.25 3.22v.05l.07.09V19.2a.24.24 0 0 0 0 .08v19.24Z"></path>
<path fill="white" d="M23.72 29.86a1 1 0 0 1-1 0L8.85 21.25v16.4h28.79v-16.4ZM11.49 20.6v-2.66L9.56 19.4l1.93 1.2z"></path></svg>