<?xml version="1.0" encoding="UTF-8"?>
<!DOCTYPE svg PUBLIC "-//W3C//DTD SVG 1.1//EN" "http://www.w3.org/Graphics/SVG/1.1/DTD/svg11.dtd">
<svg xmlns="http://www.w3.org/2000/svg" version="1.1" width="1455px" height="475px" style="shape-rendering:geometricPrecision; text-rendering:geometricPrecision; image-rendering:optimizeQuality; fill-rule:evenodd; clip-rule:evenodd" xmlns:xlink="http://www.w3.org/1999/xlink">
<g><path style="opacity:0.893" fill="#000000" d="M 620.5,5.5 C 622.833,5.5 625.167,5.5 627.5,5.5C 627.5,155.5 627.5,305.5 627.5,455.5C 625.167,455.5 622.833,455.5 620.5,455.5C 620.5,305.5 620.5,155.5 620.5,5.5 Z"/></g>
<g><path style="opacity:1" fill="#f21615" d="M 734.5,27.5 C 734.666,33.5092 734.499,39.5092 734,45.5C 733.329,44.7476 732.496,44.4142 731.5,44.5C 722.546,39.5722 713.212,38.5722 703.5,41.5C 701.914,43.1727 701.247,45.1727 701.5,47.5C 701.427,49.0269 702.094,50.0269 703.5,50.5C 712.345,55.8469 721.679,60.3469 731.5,64C 743.567,72.4166 747.067,83.5833 742,97.5C 736.419,107.74 727.919,114.24 716.5,117C 704.812,118.513 693.145,118.179 681.5,116C 679.273,115.879 677.44,115.046 676,113.5C 674.022,106.589 672.522,99.5886 671.5,92.5C 671.328,91.5084 671.662,90.8417 672.5,90.5C 683.433,98.643 695.766,102.476 709.5,102C 717.869,99.9872 719.536,95.6538 714.5,89C 706.712,85.606 699.045,81.9394 691.5,78C 689.237,76.383 687.237,74.5497 685.5,72.5C 685.027,71.0937 684.027,70.427 682.5,70.5C 679.176,67.1722 677.176,63.1722 676.5,58.5C 676.36,52.4638 676.693,46.4638 677.5,40.5C 677.328,39.5084 677.662,38.8417 678.5,38.5C 679.906,38.0269 680.573,37.0269 680.5,35.5C 683.041,31.2933 686.708,28.6266 691.5,27.5C 694.152,27.5905 696.485,26.9238 698.5,25.5C 710.505,23.2739 722.505,23.9405 734.5,27.5 Z"/></g>
<g><path style="opacity:0.949" fill="#931310" d="M 698.5,25.5 C 696.485,26.9238 694.152,27.5905 691.5,27.5C 693.515,26.0762 695.848,25.4095 698.5,25.5 Z"/></g>
<g><path style="opacity:0.522" fill="#760d0b" d="M 734.5,27.5 C 735.654,33.987 735.821,40.6536 735,47.5C 733.482,46.8366 732.315,45.8366 731.5,44.5C 732.496,44.4142 733.329,44.7476 734,45.5C 734.499,39.5092 734.666,33.5092 734.5,27.5 Z"/></g>
<g><path style="opacity:0.983" fill="#000000" d="M 175.5,30.5 C 184.274,37.4394 192.274,45.2727 199.5,54C 200.5,54.1667 201.5,54.3333 202.5,54.5C 215.513,53.3779 228.513,53.2112 241.5,54C 249.4,46.1003 257.233,38.2669 265,30.5C 277.91,33.4699 290.41,37.6366 302.5,43C 304.083,54.2541 306.083,65.4208 308.5,76.5C 319.541,83.0211 329.875,90.5211 339.5,99C 351.151,97.5584 362.817,96.2251 374.5,95C 383.329,104.83 390.996,115.496 397.5,127C 392.293,136.581 386.96,146.081 381.5,155.5C 387.362,167.945 391.529,180.945 394,194.5C 404.124,199.229 414.124,204.229 424,209.5C 424.389,216.175 424.889,222.842 425.5,229.5C 424.889,236.158 424.389,242.825 424,249.5C 414.213,254.643 404.38,259.643 394.5,264.5C 391.55,277.968 387.217,290.968 381.5,303.5C 386.96,312.919 392.293,322.419 397.5,332C 396.707,333.085 396.04,334.252 395.5,335.5C 362.255,338.142 333.922,327.642 310.5,304C 341.975,262.339 345.808,218.173 322,171.5C 286.813,119.324 238.979,102.49 178.5,121C 137.333,138.509 112.833,169.343 105,213.5C 100.798,272.228 125.298,313.728 178.5,338C 188.662,341.457 198.995,344.123 209.5,346C 216.071,355.907 223.404,365.241 231.5,374C 243.152,372.558 254.819,371.225 266.5,370C 275.052,376.886 283.886,383.386 293,389.5C 294.57,399.145 295.57,408.811 296,418.5C 285.992,422.754 275.658,426.087 265,428.5C 257.233,420.733 249.4,412.9 241.5,405C 240.667,404.833 239.833,404.667 239,404.5C 225.829,405.591 212.662,405.757 199.5,405C 192.35,413.317 184.683,421.151 176.5,428.5C 163.816,425.579 151.482,421.579 139.5,416.5C 137.343,405.574 135.51,394.574 134,383.5C 122.696,376.763 112.196,368.929 102.5,360C 90.8187,361.225 79.1521,362.558 67.5,364C 58.6559,354.16 50.9892,343.493 44.5,332C 50.0317,322.603 55.0317,312.937 59.5,303C 54.2996,290.731 50.2996,278.065 47.5,265C 38.1709,259.669 28.5042,254.835 18.5,250.5C 17.0024,243.597 16.3358,236.597 16.5,229.5C 16.3358,222.403 17.0024,215.403 18.5,208.5C 27.8333,204.167 37.1667,199.833 46.5,195.5C 49.6754,181.807 54.342,168.641 60.5,156C 55.1595,146.317 49.8262,136.651 44.5,127C 50.9892,115.507 58.6559,104.84 67.5,95C 77.8913,95.7757 88.2246,97.2757 98.5,99.5C 100.299,99.423 101.966,98.923 103.5,98C 113.044,89.6459 123.211,82.1459 134,75.5C 135.51,64.4256 137.343,53.4256 139.5,42.5C 151.302,37.5582 163.302,33.5582 175.5,30.5 Z"/></g>
<g><path style="opacity:1" fill="#fa1615" d="M 307.5,416.5 C 307.068,415.29 306.401,414.29 305.5,413.5C 304.289,404.853 303.122,396.187 302,387.5C 301.837,385.324 301.004,383.491 299.5,382C 288.434,376.132 278.434,368.799 269.5,360C 257.819,361.225 246.152,362.558 234.5,364C 225.867,354.201 218.2,343.701 211.5,332.5C 216.706,322.587 222.04,312.753 227.5,303C 221.779,290.839 217.446,278.172 214.5,265C 204.923,259.379 194.923,254.545 184.5,250.5C 183.167,236.5 183.167,222.5 184.5,208.5C 194.253,204.459 203.919,200.126 213.5,195.5C 217.075,181.943 221.741,168.776 227.5,156C 222.04,146.247 216.706,136.413 211.5,126.5C 212.167,125.5 212.833,124.5 213.5,123.5C 246.704,120.778 274.704,131.445 297.5,155.5C 267.147,196.729 263.314,240.396 286,286.5C 312.499,329.168 350.999,348.668 401.5,345C 424.741,341.872 445.408,333.038 463.5,318.5C 467.5,316.5 470.5,313.5 472.5,309.5C 505.261,272.179 512.761,230.179 495,183.5C 475.841,143.66 444.341,120.493 400.5,114C 393.595,103.758 385.928,94.091 377.5,85C 366.798,85.9043 356.131,87.4043 345.5,89.5C 343.209,89.3779 341.209,88.5446 339.5,87C 332.53,80.5307 324.864,75.0307 316.5,70.5C 314.753,63.2686 313.753,55.9353 313.5,48.5C 313.264,45.3915 313.597,42.3915 314.5,39.5C 324.078,35.8084 333.911,32.8084 344,30.5C 352.076,39.08 360.576,47.08 369.5,54.5C 382.513,53.3779 395.513,53.2112 408.5,54C 416.4,46.1003 424.233,38.2669 432,30.5C 445.087,33.8074 457.92,37.8074 470.5,42.5C 471.255,52.2087 472.422,61.8753 474,71.5C 474.163,73.676 474.996,75.5093 476.5,77C 487.566,82.8675 497.566,90.2009 506.5,99C 518.181,97.7752 529.848,96.4419 541.5,95C 550.329,104.83 557.996,115.496 564.5,127C 559.167,136.667 553.833,146.333 548.5,156C 554.325,168.309 558.659,181.142 561.5,194.5C 571.38,199.357 581.213,204.357 591,209.5C 593,222.833 593,236.167 591,249.5C 581.213,254.643 571.38,259.643 561.5,264.5C 558.659,277.858 554.325,290.691 548.5,303C 553.833,312.667 559.167,322.333 564.5,332C 557.996,343.504 550.329,354.17 541.5,364C 529.848,362.558 518.181,361.225 506.5,360C 497.566,368.799 487.566,376.132 476.5,382C 474.996,383.491 474.163,385.324 474,387.5C 472.422,397.125 471.255,406.791 470.5,416.5C 457.915,421.194 445.082,425.194 432,428.5C 424.233,420.733 416.4,412.9 408.5,405C 407.667,404.833 406.833,404.667 406,404.5C 392.79,405.42 379.623,405.753 366.5,405.5C 359.159,413.341 351.659,421.007 344,428.5C 331.37,425.567 319.203,421.567 307.5,416.5 Z"/></g>
<g><path style="opacity:1" fill="#ed1615" d="M 1022.5,33.5 C 1023.71,35.8922 1024.38,38.5589 1024.5,41.5C 1024.5,44.0254 1024.16,46.3587 1023.5,48.5C 996.18,37.0662 983.013,46.0662 984,75.5C 984.813,77.4357 985.313,79.4357 985.5,81.5C 985.427,83.0269 986.094,84.0269 987.5,84.5C 996.498,94.2732 1007.5,97.4399 1020.5,94C 1024.07,93.3118 1027.4,92.1452 1030.5,90.5C 1031.83,90.5 1032.5,91.1667 1032.5,92.5C 1030.23,96.7091 1028.23,101.042 1026.5,105.5C 1025.45,106.53 1024.11,107.197 1022.5,107.5C 1011.67,109.999 1001.01,109.999 990.5,107.5C 988.485,106.076 986.152,105.41 983.5,105.5C 964.457,97.0926 956.624,82.426 960,61.5C 966.625,40.6715 980.958,30.6715 1003,31.5C 1009.58,31.5589 1016.08,32.2256 1022.5,33.5 Z"/></g>
<g><path style="opacity:0.522" fill="#810b0a" d="M 804.5,34.5 C 785.659,34.1698 766.993,34.5031 748.5,35.5C 747.711,35.2172 747.044,34.7172 746.5,34C 766.004,33.171 785.338,33.3377 804.5,34.5 Z"/></g>
<g><path style="opacity:0.522" fill="#7a0d0b" d="M 840.5,35.5 C 830.735,34.1835 821.068,34.1835 811.5,35.5C 810.957,35.44 810.624,35.1067 810.5,34.5C 815.5,34.1667 820.5,33.8333 825.5,33.5C 830.881,33.5058 835.881,34.1725 840.5,35.5 Z"/></g>
<g><path style="opacity:0.522" fill="#750e0b" d="M 890.5,35.5 C 886.849,34.8345 883.015,34.5012 879,34.5C 874.771,34.5102 870.938,35.1768 867.5,36.5C 866.522,36.189 865.855,35.5223 865.5,34.5C 874.482,33.3347 883.482,33.168 892.5,34C 891.956,34.7172 891.289,35.2172 890.5,35.5 Z"/></g>
<g><path style="opacity:0.522" fill="#880d0c" d="M 947.5,50.5 C 948.496,50.4142 949.329,50.7476 950,51.5C 950.499,45.8431 950.666,40.1764 950.5,34.5C 931.803,33.8465 913.47,34.5131 895.5,36.5C 894.733,35.828 894.066,34.9947 893.5,34C 912.83,33.5 932.164,33.3334 951.5,33.5C 951.666,40.175 951.5,46.8417 951,53.5C 949.482,52.8366 948.315,51.8366 947.5,50.5 Z"/></g>
<g><path style="opacity:0.522" fill="#790d0b" d="M 1081.5,35.5 C 1072.73,34.1855 1064.07,34.1855 1055.5,35.5C 1054.96,35.44 1054.62,35.1067 1054.5,34.5C 1059,34.1667 1063.5,33.8333 1068,33.5C 1072.89,33.5073 1077.39,34.1739 1081.5,35.5 Z"/></g>
<g><path style="opacity:1" fill="#f81515" d="M 804.5,34.5 C 804.666,40.8421 804.5,47.1754 804,53.5C 801.186,50.4194 797.686,48.7527 793.5,48.5C 787.69,47.5104 781.69,47.1771 775.5,47.5C 775.5,52.1667 775.5,56.8333 775.5,61.5C 782.833,61.5 790.167,61.5 797.5,61.5C 798.113,67.2709 797.446,72.6042 795.5,77.5C 789.319,75.7477 782.986,75.0811 776.5,75.5C 776.5,80.8333 776.5,86.1667 776.5,91.5C 787.814,92.3874 798.814,91.0541 809.5,87.5C 810.338,87.8417 810.672,88.5084 810.5,89.5C 809.032,95.2368 807.365,100.903 805.5,106.5C 785.497,106.667 765.497,106.5 745.5,106C 746.705,104.624 748.038,103.458 749.5,102.5C 750.906,102.027 751.573,101.027 751.5,99.5C 752.613,81.5246 752.779,63.5246 752,45.5C 751.652,41.8197 750.485,38.4864 748.5,35.5C 766.993,34.5031 785.659,34.1698 804.5,34.5 Z"/></g>
<g><path style="opacity:1" fill="#f51615" d="M 840.5,35.5 C 843.2,37.2344 845.2,39.5677 846.5,42.5C 846.427,44.0269 847.094,45.0269 848.5,45.5C 850.633,47.0905 852.299,49.0905 853.5,51.5C 853.427,53.0269 854.094,54.0269 855.5,54.5C 857.633,56.0905 859.299,58.0905 860.5,60.5C 860.427,62.0269 861.094,63.0269 862.5,63.5C 865.209,66.2085 867.542,69.2085 869.5,72.5C 869.783,73.2891 870.283,73.9558 871,74.5C 871.825,63.6586 871.659,52.992 870.5,42.5C 869.514,40.5739 868.514,38.5739 867.5,36.5C 870.938,35.1768 874.771,34.5102 879,34.5C 883.015,34.5012 886.849,34.8345 890.5,35.5C 890.008,37.8185 889.008,39.8185 887.5,41.5C 886.502,64.3273 886.169,87.3273 886.5,110.5C 884.167,110.5 881.833,110.5 879.5,110.5C 879.167,110.5 878.833,110.5 878.5,110.5C 876.485,109.076 874.152,108.41 871.5,108.5C 868.112,107.381 865.279,105.381 863,102.5C 852.284,89.4525 841.951,76.1191 832,62.5C 831.333,73.1667 831.333,83.8333 832,94.5C 832.742,99.151 834.908,102.984 838.5,106C 828.833,106.667 819.167,106.667 809.5,106C 810.373,104.955 811.373,104.122 812.5,103.5C 813.906,103.027 814.573,102.027 814.5,100.5C 815.642,80.8767 815.809,61.2101 815,41.5C 814.074,39.3083 812.907,37.3083 811.5,35.5C 821.068,34.1835 830.735,34.1835 840.5,35.5 Z"/></g>
<g><path style="opacity:1" fill="#f61615" d="M 947.5,50.5 C 939.644,48.6816 931.644,48.0149 923.5,48.5C 922.515,52.6344 922.182,56.9677 922.5,61.5C 929.833,61.5 937.167,61.5 944.5,61.5C 944.822,67.358 944.489,73.0247 943.5,78.5C 942.313,76.0246 940.313,75.0246 937.5,75.5C 932.833,75.5 928.167,75.5 923.5,75.5C 922.511,80.9753 922.178,86.642 922.5,92.5C 927.695,92.8205 932.695,92.4872 937.5,91.5C 944.063,91.1295 950.397,89.7962 956.5,87.5C 957.338,87.8417 957.672,88.5084 957.5,89.5C 955.631,95.1081 953.964,100.775 952.5,106.5C 932.497,106.667 912.497,106.5 892.5,106C 895.106,104.062 896.939,101.562 898,98.5C 898.5,79.5029 898.667,60.5029 898.5,41.5C 898.715,39.8212 898.048,38.8212 896.5,38.5C 896.167,37.8333 895.833,37.1667 895.5,36.5C 913.47,34.5131 931.803,33.8465 950.5,34.5C 950.666,40.1764 950.499,45.8431 950,51.5C 949.329,50.7476 948.496,50.4142 947.5,50.5 Z"/></g>
<g><path style="opacity:0.443" fill="#670a09" d="M 1022.5,33.5 C 1023.5,33.5 1024.5,33.5 1025.5,33.5C 1025.83,38.8746 1025.49,44.2079 1024.5,49.5C 1023.89,49.3764 1023.56,49.0431 1023.5,48.5C 1024.16,46.3587 1024.5,44.0254 1024.5,41.5C 1024.38,38.5589 1023.71,35.8922 1022.5,33.5 Z"/></g>
<g><path style="opacity:1" fill="#f31615" d="M 1081.5,35.5 C 1089.81,56.7627 1098.15,78.096 1106.5,99.5C 1106.43,101.027 1107.09,102.027 1108.5,102.5C 1109.96,103.458 1111.29,104.624 1112.5,106C 1099.5,106.667 1086.5,106.667 1073.5,106C 1077.56,101.466 1078.56,96.2991 1076.5,90.5C 1069.14,90.1694 1061.8,90.5027 1054.5,91.5C 1051.24,96.8918 1051.91,101.725 1056.5,106C 1046.32,106.825 1036.32,106.658 1026.5,105.5C 1028.17,104.167 1029.83,102.833 1031.5,101.5C 1032.91,101.027 1033.57,100.027 1033.5,98.5C 1041.58,79.5115 1049.24,60.3448 1056.5,41C 1056.06,39.175 1055.72,37.3417 1055.5,35.5C 1064.07,34.1855 1072.73,34.1855 1081.5,35.5 Z M 1065.5,58.5 C 1067.87,63.9284 1069.87,69.595 1071.5,75.5C 1067.54,76.6599 1063.54,76.8265 1059.5,76C 1062.2,70.4094 1064.2,64.5761 1065.5,58.5 Z"/></g>
<g><path style="opacity:0.396" fill="#5a110b" d="M 680.5,35.5 C 680.573,37.0269 679.906,38.0269 678.5,38.5C 678.427,36.9731 679.094,35.9731 680.5,35.5 Z"/></g>
<g><path style="opacity:0.914" fill="#76160f" d="M 896.5,38.5 C 898.048,38.8212 898.715,39.8212 898.5,41.5C 897.599,40.7095 896.932,39.7095 896.5,38.5 Z"/></g>
<g><path style="opacity:0.918" fill="#8a120f" d="M 314.5,39.5 C 313.597,42.3915 313.264,45.3915 313.5,48.5C 312.842,47.2067 312.508,45.7067 312.5,44C 312.569,42.0145 313.235,40.5145 314.5,39.5 Z"/></g>
<g><path style="opacity:0.694" fill="#60140c" d="M 846.5,42.5 C 847.906,42.9731 848.573,43.9731 848.5,45.5C 847.094,45.0269 846.427,44.0269 846.5,42.5 Z"/></g>
<g><path style="opacity:0.475" fill="#580f09" d="M 793.5,48.5 C 787.833,48.5 782.167,48.5 776.5,48.5C 776.5,52.5 776.5,56.5 776.5,60.5C 784.019,60.175 791.352,60.5084 798.5,61.5C 798.167,61.5 797.833,61.5 797.5,61.5C 790.167,61.5 782.833,61.5 775.5,61.5C 775.5,56.8333 775.5,52.1667 775.5,47.5C 781.69,47.1771 787.69,47.5104 793.5,48.5 Z"/></g>
<g><path style="opacity:0.047" fill="#130201" d="M 887.5,41.5 C 887.5,64.8333 887.5,88.1667 887.5,111.5C 884.615,111.806 881.948,111.473 879.5,110.5C 881.833,110.5 884.167,110.5 886.5,110.5C 886.169,87.3273 886.502,64.3273 887.5,41.5 Z"/></g>
<g><path style="opacity:0.145" fill="#2d0704" d="M 870.5,42.5 C 871.659,52.992 871.825,63.6586 871,74.5C 870.283,73.9558 869.783,73.2891 869.5,72.5C 870.494,62.6806 870.827,52.6806 870.5,42.5 Z"/></g>
<g><path style="opacity:0.482" fill="#67110c" d="M 701.5,47.5 C 702.906,47.9731 703.573,48.9731 703.5,50.5C 702.094,50.0269 701.427,49.0269 701.5,47.5 Z"/></g>
<g><path style="opacity:0.9" fill="#a31110" d="M 677.5,40.5 C 676.693,46.4638 676.36,52.4638 676.5,58.5C 675.836,56.1903 675.503,53.6903 675.5,51C 675.304,47.1952 675.97,43.6952 677.5,40.5 Z"/></g>
<g><path style="opacity:0.722" fill="#64140d" d="M 853.5,51.5 C 854.906,51.9731 855.573,52.9731 855.5,54.5C 854.094,54.0269 853.427,53.0269 853.5,51.5 Z"/></g>
<g><path style="opacity:0.067" fill="#1b0201" d="M 923.5,48.5 C 923.5,52.5 923.5,56.5 923.5,60.5C 931.019,60.175 938.352,60.5084 945.5,61.5C 945.167,61.5 944.833,61.5 944.5,61.5C 937.167,61.5 929.833,61.5 922.5,61.5C 922.182,56.9677 922.515,52.6344 923.5,48.5 Z"/></g>
<g><path style="opacity:0.647" fill="#9c0f0e" d="M 797.5,61.5 C 797.833,61.5 798.167,61.5 798.5,61.5C 798.666,67.8421 798.5,74.1754 798,80.5C 796.955,79.6266 796.122,78.6266 795.5,77.5C 797.446,72.6042 798.113,67.2709 797.5,61.5 Z"/></g>
<g><path style="opacity:0.749" fill="#69150d" d="M 860.5,60.5 C 861.906,60.9731 862.573,61.9731 862.5,63.5C 861.094,63.0269 860.427,62.0269 860.5,60.5 Z"/></g>
<g><path style="opacity:0.396" fill="#610908" d="M 944.5,61.5 C 944.833,61.5 945.167,61.5 945.5,61.5C 945.666,67.8421 945.5,74.1754 945,80.5C 944.283,79.9558 943.783,79.2891 943.5,78.5C 944.489,73.0247 944.822,67.358 944.5,61.5 Z"/></g>
<g><path style="opacity:0.592" fill="#59130a" d="M 682.5,70.5 C 684.027,70.427 685.027,71.0937 685.5,72.5C 683.973,72.573 682.973,71.9063 682.5,70.5 Z"/></g>
<g><path style="opacity:0.271" fill="#4f0607" d="M 923.5,75.5 C 923.5,80.8333 923.5,86.1667 923.5,91.5C 928.167,91.5 932.833,91.5 937.5,91.5C 932.695,92.4872 927.695,92.8205 922.5,92.5C 922.178,86.642 922.511,80.9753 923.5,75.5 Z"/></g>
<g><path style="opacity:0.741" fill="#79140f" d="M 937.5,75.5 C 940.313,75.0246 942.313,76.0246 943.5,78.5C 941.456,77.4918 939.456,76.4918 937.5,75.5 Z"/></g>
<g><path style="opacity:0.424" fill="#63100b" d="M 985.5,81.5 C 986.906,81.9731 987.573,82.9731 987.5,84.5C 986.094,84.0269 985.427,83.0269 985.5,81.5 Z"/></g>
<g><path style="opacity:0.533" fill="#600a0b" d="M 809.5,87.5 C 810.302,86.1153 810.969,86.282 811.5,88C 811.43,88.7648 811.097,89.2648 810.5,89.5C 810.672,88.5084 810.338,87.8417 809.5,87.5 Z"/></g>
<g><path style="opacity:0.42" fill="#490b06" d="M 956.5,87.5 C 957.302,86.1153 957.969,86.282 958.5,88C 958.43,88.7648 958.097,89.2648 957.5,89.5C 957.672,88.5084 957.338,87.8417 956.5,87.5 Z"/></g>
<g><path style="opacity:0.553" fill="#620d0a" d="M 672.5,90.5 C 671.662,90.8417 671.328,91.5084 671.5,92.5C 670.402,91.3991 670.235,90.0657 671,88.5C 671.717,89.0442 672.217,89.7109 672.5,90.5 Z"/></g>
<g><path style="opacity:0.757" fill="#65120d" d="M 1032.5,92.5 C 1032.5,91.1667 1031.83,90.5 1030.5,90.5C 1031.31,89.1634 1032.48,88.1634 1034,87.5C 1034.6,89.5348 1034.1,91.2015 1032.5,92.5 Z"/></g>
<g><path style="opacity:0.502" fill="#65120c" d="M 1033.5,98.5 C 1033.57,100.027 1032.91,101.027 1031.5,101.5C 1031.43,99.9731 1032.09,98.9731 1033.5,98.5 Z"/></g>
<g><path style="opacity:0.722" fill="#63140d" d="M 1106.5,99.5 C 1107.91,99.9731 1108.57,100.973 1108.5,102.5C 1107.09,102.027 1106.43,101.027 1106.5,99.5 Z"/></g>
<g><path style="opacity:0.435" fill="#66110c" d="M 751.5,99.5 C 751.573,101.027 750.906,102.027 749.5,102.5C 749.427,100.973 750.094,99.9731 751.5,99.5 Z"/></g>
<g><path style="opacity:0.51" fill="#67110c" d="M 814.5,100.5 C 814.573,102.027 813.906,103.027 812.5,103.5C 812.427,101.973 813.094,100.973 814.5,100.5 Z"/></g>
<g><path style="opacity:0.949" fill="#8d1310" d="M 983.5,105.5 C 986.152,105.41 988.485,106.076 990.5,107.5C 987.848,107.59 985.515,106.924 983.5,105.5 Z"/></g>
<g><path style="opacity:0.976" fill="#921310" d="M 871.5,108.5 C 874.152,108.41 876.485,109.076 878.5,110.5C 875.848,110.59 873.515,109.924 871.5,108.5 Z"/></g>
<g><path style="opacity:0.95" fill="#000000" d="M 671.5,133.5 C 695.167,133.5 718.833,133.5 742.5,133.5C 742.666,141.84 742.5,150.173 742,158.5C 739.9,155.533 737.066,153.7 733.5,153C 724.886,151.703 716.219,151.203 707.5,151.5C 707.5,156.833 707.5,162.167 707.5,167.5C 716.833,167.5 726.167,167.5 735.5,167.5C 735.831,175.196 735.497,182.862 734.5,190.5C 731.941,188.767 729.275,187.267 726.5,186C 720.175,185.5 713.842,185.334 707.5,185.5C 707.17,191.868 707.504,198.202 708.5,204.5C 723.126,206.755 737.126,204.755 750.5,198.5C 750.833,199 751.167,199.5 751.5,200C 749.695,203.741 748.528,207.574 748,211.5C 750.146,208.874 751.479,205.874 752,202.5C 752.667,185.833 752.667,169.167 752,152.5C 750.819,148.637 748.986,145.137 746.5,142C 756.5,141.333 766.5,141.333 776.5,142C 787.03,154.896 797.196,168.063 807,181.5C 807.875,170.783 807.541,160.116 806,149.5C 804.877,146.751 803.377,144.251 801.5,142C 810.5,141.333 819.5,141.333 828.5,142C 826.623,144.251 825.123,146.751 824,149.5C 823.5,172.831 823.333,196.164 823.5,219.5C 815.338,220.037 808.004,217.87 801.5,213C 790.285,199.453 779.452,185.62 769,171.5C 768.333,183.167 768.333,194.833 769,206.5C 770.467,209.266 772.3,211.766 774.5,214C 765.167,214.333 755.833,214.667 746.5,215C 745.071,217.69 744.071,220.523 743.5,223.5C 719.164,223.667 694.831,223.5 670.5,223C 674.716,219.068 677.216,214.234 678,208.5C 678.667,188.5 678.667,168.5 678,148.5C 676.901,142.975 674.734,137.975 671.5,133.5 Z"/></g>
<g><path style="opacity:0.936" fill="#000000" d="M 868.5,139.5 C 878.001,139.088 887.334,140.088 896.5,142.5C 897.833,147.5 897.833,152.5 896.5,157.5C 888.547,152.237 879.881,150.403 870.5,152C 861.622,155.907 856.789,162.74 856,172.5C 855.562,193.229 865.728,203.562 886.5,203.5C 886.666,197.824 886.499,192.157 886,186.5C 885.102,182.205 883.269,178.372 880.5,175C 889.827,174.5 899.161,174.334 908.5,174.5C 908.832,187.184 908.499,199.851 907.5,212.5C 891.315,217.092 874.982,217.926 858.5,215C 837.021,206.212 828.521,190.379 833,167.5C 836.31,155.522 843.81,147.355 855.5,143C 859.919,141.648 864.252,140.481 868.5,139.5 Z"/></g>
<g><path style="opacity:0.929" fill="#000000" d="M 1394.5,139.5 C 1403.99,139.187 1413.32,140.187 1422.5,142.5C 1423.83,147.5 1423.83,152.5 1422.5,157.5C 1412.2,150.72 1401.53,149.887 1390.5,155C 1382.13,163.65 1379.63,173.816 1383,185.5C 1387.99,198.421 1397.49,204.421 1411.5,203.5C 1411.67,196.825 1411.5,190.158 1411,183.5C 1410.15,180.302 1408.65,177.469 1406.5,175C 1415.83,174.5 1425.16,174.334 1434.5,174.5C 1434.83,187.184 1434.5,199.851 1433.5,212.5C 1415.14,218.084 1396.81,218.25 1378.5,213C 1359.34,201.547 1353.18,185.047 1360,163.5C 1367.16,149.178 1378.66,141.178 1394.5,139.5 Z"/></g>
<g><path style="opacity:0.935" fill="#000000" d="M 913.5,141.5 C 935.843,141.167 958.177,141.5 980.5,142.5C 990.575,154.986 1000.41,167.652 1010,180.5C 1010.67,170.5 1010.67,160.5 1010,150.5C 1009.27,147.379 1007.77,144.713 1005.5,142.5C 1014.48,141.335 1023.48,141.168 1032.5,142C 1030.62,144.251 1029.12,146.751 1028,149.5C 1027.5,172.831 1027.33,196.164 1027.5,219.5C 1019.88,219.878 1012.88,218.044 1006.5,214C 994.619,199.788 983.119,185.288 972,170.5C 971.333,181.167 971.333,191.833 972,202.5C 972.742,207.151 974.908,210.984 978.5,214C 968.833,214.667 959.167,214.667 949.5,214C 951.7,211.766 953.533,209.266 955,206.5C 955.667,187.5 955.667,168.5 955,149.5C 954.07,146.638 952.403,144.305 950,142.5C 947.173,145.329 945.173,148.663 944,152.5C 943.333,169.833 943.333,187.167 944,204.5C 944.564,208.127 946.064,211.293 948.5,214C 937.167,214.667 925.833,214.667 914.5,214C 916.652,211.531 918.152,208.698 919,205.5C 919.667,187.167 919.667,168.833 919,150.5C 917.311,147.333 915.478,144.333 913.5,141.5 Z"/></g>
<g><path style="opacity:0.936" fill="#000000" d="M 1033.5,141.5 C 1052.83,141.5 1072.17,141.5 1091.5,141.5C 1091.83,148.2 1091.5,154.866 1090.5,161.5C 1088.29,159.226 1085.62,157.726 1082.5,157C 1075.84,156.5 1069.17,156.334 1062.5,156.5C 1062.5,160.5 1062.5,164.5 1062.5,168.5C 1070.17,168.5 1077.83,168.5 1085.5,168.5C 1085.67,175.175 1085.5,181.842 1085,188.5C 1082.74,186.57 1080.24,185.07 1077.5,184C 1072.85,183.501 1068.18,183.334 1063.5,183.5C 1063.5,188.833 1063.5,194.167 1063.5,199.5C 1075.14,200.638 1086.31,198.971 1097,194.5C 1097.5,194.833 1098,195.167 1098.5,195.5C 1096.06,201.645 1093.73,207.811 1091.5,214C 1071.83,214.667 1052.17,214.667 1032.5,214C 1034.97,211.559 1036.8,208.726 1038,205.5C 1038.67,187.167 1038.67,168.833 1038,150.5C 1036.49,147.478 1034.99,144.478 1033.5,141.5 Z"/></g>
<g><path style="opacity:0.946" fill="#000000" d="M 1097.5,141.5 C 1116.83,141.5 1136.17,141.5 1155.5,141.5C 1155.83,148.2 1155.5,154.866 1154.5,161.5C 1152.29,159.226 1149.62,157.726 1146.5,157C 1139.84,156.5 1133.17,156.334 1126.5,156.5C 1126.5,160.5 1126.5,164.5 1126.5,168.5C 1133.83,168.5 1141.17,168.5 1148.5,168.5C 1148.67,175.175 1148.5,181.842 1148,188.5C 1146.24,185.732 1143.74,184.232 1140.5,184C 1135.85,183.501 1131.18,183.334 1126.5,183.5C 1126.5,188.833 1126.5,194.167 1126.5,199.5C 1133.17,199.666 1139.84,199.5 1146.5,199C 1152.03,197.952 1157.36,196.619 1162.5,195C 1160.27,201.189 1157.94,207.355 1155.5,213.5C 1135.84,214.666 1116.18,214.833 1096.5,214C 1099.16,211.331 1101,208.164 1102,204.5C 1102.67,186.833 1102.67,169.167 1102,151.5C 1100.75,147.996 1099.25,144.663 1097.5,141.5 Z"/></g>
<g><path style="opacity:0.944" fill="#000000" d="M 1161.5,141.5 C 1177.84,141.333 1194.17,141.5 1210.5,142C 1223.71,143.21 1229.55,150.377 1228,163.5C 1226.57,170.431 1222.4,174.431 1215.5,175.5C 1221.08,188.296 1228.91,199.63 1239,209.5C 1239.91,208.672 1240.58,207.672 1241,206.5C 1241.67,187.833 1241.67,169.167 1241,150.5C 1239.56,147.397 1237.73,144.564 1235.5,142C 1257.83,141.333 1280.17,141.333 1302.5,142C 1313.03,154.896 1323.2,168.063 1333,181.5C 1333.87,170.783 1333.54,160.116 1332,149.5C 1330.88,146.751 1329.38,144.251 1327.5,142C 1336.5,141.333 1345.5,141.333 1354.5,142C 1352.62,144.251 1351.12,146.751 1350,149.5C 1349.5,172.831 1349.33,196.164 1349.5,219.5C 1341.34,220.037 1334,217.87 1327.5,213C 1316.29,199.453 1305.45,185.62 1295,171.5C 1294.33,183.167 1294.33,194.833 1295,206.5C 1296.47,209.266 1298.3,211.766 1300.5,214C 1290.83,214.667 1281.17,214.667 1271.5,214C 1275.09,210.984 1277.26,207.151 1278,202.5C 1278.67,185.833 1278.67,169.167 1278,152.5C 1276.94,148.717 1275.11,145.383 1272.5,142.5C 1268.55,145.508 1266.38,149.508 1266,154.5C 1265.33,170.5 1265.33,186.5 1266,202.5C 1266.52,206.715 1268.02,210.548 1270.5,214C 1251.41,214.974 1232.41,214.641 1213.5,213C 1207.61,205.443 1202.11,197.61 1197,189.5C 1194.06,184.525 1192.23,179.192 1191.5,173.5C 1199.61,174.05 1204.61,170.384 1206.5,162.5C 1205.63,158.13 1202.96,155.63 1198.5,155C 1195.85,154.503 1193.19,154.336 1190.5,154.5C 1190.33,171.503 1190.5,188.503 1191,205.5C 1192.41,208.582 1194.24,211.415 1196.5,214C 1184.17,214.667 1171.83,214.667 1159.5,214C 1163.09,210.984 1165.26,207.151 1166,202.5C 1166.67,185.5 1166.67,168.5 1166,151.5C 1164.75,147.996 1163.25,144.663 1161.5,141.5 Z"/></g>
<g><path style="opacity:1" fill="#f21615" d="M 734.5,237.5 C 734.666,243.509 734.499,249.509 734,255.5C 733.329,254.748 732.496,254.414 731.5,254.5C 722.546,249.572 713.212,248.572 703.5,251.5C 701.914,253.173 701.247,255.173 701.5,257.5C 701.427,259.027 702.094,260.027 703.5,260.5C 712.345,265.847 721.679,270.347 731.5,274C 743.567,282.417 747.067,293.583 742,307.5C 736.419,317.74 727.919,324.24 716.5,327C 704.812,328.513 693.145,328.179 681.5,326C 679.273,325.879 677.44,325.046 676,323.5C 674.022,316.589 672.522,309.589 671.5,302.5C 671.328,301.508 671.662,300.842 672.5,300.5C 683.433,308.643 695.766,312.476 709.5,312C 717.869,309.987 719.536,305.654 714.5,299C 706.712,295.606 699.045,291.939 691.5,288C 689.237,286.383 687.237,284.55 685.5,282.5C 685.027,281.094 684.027,280.427 682.5,280.5C 679.176,277.172 677.176,273.172 676.5,268.5C 676.36,262.464 676.693,256.464 677.5,250.5C 677.328,249.508 677.662,248.842 678.5,248.5C 679.906,248.027 680.573,247.027 680.5,245.5C 683.041,241.293 686.708,238.627 691.5,237.5C 694.152,237.59 696.485,236.924 698.5,235.5C 710.505,233.274 722.505,233.941 734.5,237.5 Z"/></g>
<g><path style="opacity:0.949" fill="#931310" d="M 698.5,235.5 C 696.485,236.924 694.152,237.59 691.5,237.5C 693.515,236.076 695.848,235.41 698.5,235.5 Z"/></g>
<g><path style="opacity:0.522" fill="#760d0b" d="M 734.5,237.5 C 735.654,243.987 735.821,250.654 735,257.5C 733.482,256.837 732.315,255.837 731.5,254.5C 732.496,254.414 733.329,254.748 734,255.5C 734.499,249.509 734.666,243.509 734.5,237.5 Z"/></g>
<g><path style="opacity:0.396" fill="#5a110b" d="M 680.5,245.5 C 680.573,247.027 679.906,248.027 678.5,248.5C 678.427,246.973 679.094,245.973 680.5,245.5 Z"/></g>
<g><path style="opacity:0.522" fill="#820a0b" d="M 751.5,248.5 C 782.669,247.17 814.003,247.17 845.5,248.5C 845.376,249.107 845.043,249.44 844.5,249.5C 813.671,248.502 782.671,248.169 751.5,248.5 Z"/></g>
<g><path style="opacity:0.522" fill="#790d0a" d="M 891.5,249.5 C 880.833,248.167 870.167,248.167 859.5,249.5C 858.957,249.44 858.624,249.107 858.5,248.5C 870.152,247.334 881.819,247.167 893.5,248C 892.956,248.717 892.289,249.217 891.5,249.5 Z"/></g>
<g><path style="opacity:0.522" fill="#780d0a" d="M 945.5,248.5 C 928.991,248.17 912.658,248.504 896.5,249.5C 895.957,249.44 895.624,249.107 895.5,248.5C 912.329,247.173 928.995,247.173 945.5,248.5 Z"/></g>
<g><path style="opacity:0.522" fill="#7d0b0b" d="M 1027.5,266.5 C 1028.49,260.69 1028.82,254.69 1028.5,248.5C 1009.66,248.17 990.993,248.503 972.5,249.5C 971.957,249.44 971.624,249.107 971.5,248.5C 990.822,247.5 1010.16,247.167 1029.5,247.5C 1029.83,254.2 1029.5,260.866 1028.5,267.5C 1027.89,267.376 1027.56,267.043 1027.5,266.5 Z"/></g>
<g><path style="opacity:0.522" fill="#7e0b0a" d="M 1064.5,248.5 C 1054.99,248.173 1045.65,248.506 1036.5,249.5C 1035.71,249.217 1035.04,248.717 1034.5,248C 1044.68,247.175 1054.68,247.342 1064.5,248.5 Z"/></g>
<g><path style="opacity:0.522" fill="#790c0a" d="M 1115.5,249.5 C 1107.5,248.167 1099.5,248.167 1091.5,249.5C 1090.96,249.44 1090.62,249.107 1090.5,248.5C 1099.17,247.167 1107.83,247.167 1116.5,248.5C 1116.38,249.107 1116.04,249.44 1115.5,249.5 Z"/></g>
<g><path style="opacity:0.522" fill="#800b0b" d="M 1181.5,248.5 C 1160.76,248.179 1140.09,248.512 1119.5,249.5C 1129.64,248.168 1140.14,247.501 1151,247.5C 1161.91,247.488 1172.08,247.822 1181.5,248.5 Z"/></g>
<g><path style="opacity:1" fill="#ef1615" d="M 1204.5,265.5 C 1204.83,267.833 1206.17,269.167 1208.5,269.5C 1214.26,272.716 1220.26,275.383 1226.5,277.5C 1226.82,279.048 1227.82,279.715 1229.5,279.5C 1235.88,283.264 1238.88,288.93 1238.5,296.5C 1237.41,310.763 1229.74,319.263 1215.5,322C 1204.76,322.86 1194.09,322.36 1183.5,320.5C 1182.24,315.218 1181.24,309.885 1180.5,304.5C 1180.23,302.901 1180.57,301.568 1181.5,300.5C 1187.61,304.651 1194.27,307.651 1201.5,309.5C 1204.98,310.643 1208.64,310.81 1212.5,310C 1213.06,309.617 1213.39,309.117 1213.5,308.5C 1216.7,307.146 1217.86,304.813 1217,301.5C 1208.45,296.807 1199.95,291.974 1191.5,287C 1180.85,276.492 1179.85,265.159 1188.5,253C 1195.62,247.719 1203.62,245.553 1212.5,246.5C 1218.93,246.412 1225.26,247.079 1231.5,248.5C 1231.67,254.176 1231.5,259.843 1231,265.5C 1223.72,259.71 1215.55,257.877 1206.5,260C 1204.84,261.444 1204.18,263.278 1204.5,265.5 Z"/></g>
<g><path style="opacity:1" fill="#e61615" d="M 1248.5,281.5 C 1246.78,281.371 1245.12,281.038 1243.5,280.5C 1243.17,279.167 1242.83,277.833 1242.5,276.5C 1245.39,273.774 1247.72,270.607 1249.5,267C 1239.67,261.21 1239.01,254.543 1247.5,247C 1257.34,244.832 1262.68,248.832 1263.5,259C 1261.13,268.227 1256.13,275.727 1248.5,281.5 Z"/></g>
<g><path style="opacity:1" fill="#f71615" d="M 751.5,248.5 C 782.671,248.169 813.671,248.502 844.5,249.5C 842.28,252.765 841.114,256.432 841,260.5C 840.091,274.547 840.425,288.547 842,302.5C 848.946,309.151 855.946,309.151 863,302.5C 863.667,287.167 863.667,271.833 863,256.5C 862.347,253.861 861.18,251.527 859.5,249.5C 870.167,248.167 880.833,248.167 891.5,249.5C 889.28,253.515 888.113,257.849 888,262.5C 887.092,279.206 887.425,295.873 889,312.5C 889.93,315.362 891.597,317.695 894,319.5C 897.019,316.797 899.019,313.464 900,309.5C 900.667,292.833 900.667,276.167 900,259.5C 899.669,255.845 898.502,252.512 896.5,249.5C 912.658,248.504 928.991,248.17 945.5,248.5C 951.016,249.258 955.683,251.591 959.5,255.5C 959.427,257.027 960.094,258.027 961.5,258.5C 965.469,262.983 967.636,268.317 968,274.5C 969.816,286.077 968.15,297.077 963,307.5C 958.585,313.571 952.752,317.738 945.5,320C 918.502,320.5 891.502,320.667 864.5,320.5C 864.662,318.473 864.495,316.473 864,314.5C 863.283,315.044 862.783,315.711 862.5,316.5C 853.72,322.163 844.053,323.996 833.5,322C 824.219,319.719 818.719,313.886 817,304.5C 816.667,288.5 816.333,272.5 816,256.5C 815,254.5 814,252.5 813,250.5C 811.923,253.899 810.756,257.233 809.5,260.5C 807.544,262.148 805.211,262.815 802.5,262.5C 798.702,261.517 794.702,261.183 790.5,261.5C 790.17,277.675 790.504,293.675 791.5,309.5C 792.363,311.421 793.029,313.421 793.5,315.5C 793.427,317.027 794.094,318.027 795.5,318.5C 796.289,318.783 796.956,319.283 797.5,320C 785.167,320.667 772.833,320.667 760.5,320C 764.502,317.161 766.835,313.327 767.5,308.5C 768.496,293.009 768.83,277.342 768.5,261.5C 764.958,261.187 761.625,261.521 758.5,262.5C 754.798,262.981 751.131,263.648 747.5,264.5C 747.378,258.855 748.711,253.521 751.5,248.5 Z M 924.5,260.5 C 929.412,260.063 934.078,260.896 938.5,263C 939.381,263.708 940.047,264.542 940.5,265.5C 940.932,266.71 941.599,267.71 942.5,268.5C 945.328,278.552 945.161,288.552 942,298.5C 938.798,305.521 933.298,308.521 925.5,307.5C 924.516,291.911 924.183,276.244 924.5,260.5 Z"/></g>
<g><path style="opacity:1" fill="#f71515" d="M 1027.5,266.5 C 1025.47,264.82 1023.14,263.653 1020.5,263C 1013.84,262.5 1007.17,262.334 1000.5,262.5C 1000.5,266.5 1000.5,270.5 1000.5,274.5C 1007.65,275.492 1014.98,275.825 1022.5,275.5C 1023.12,281.598 1022.45,287.265 1020.5,292.5C 1019.12,291.199 1017.45,290.366 1015.5,290C 1010.85,289.501 1006.18,289.334 1001.5,289.5C 1000.51,294.975 1000.18,300.642 1000.5,306.5C 1006.69,306.823 1012.69,306.49 1018.5,305.5C 1022.91,304.821 1027.24,303.821 1031.5,302.5C 1032.5,302.5 1033.5,302.5 1034.5,302.5C 1034.5,303.5 1034.5,304.5 1034.5,305.5C 1033.14,310.427 1031.47,315.26 1029.5,320C 1009.83,320.667 990.167,320.667 970.5,320C 972.969,317.559 974.802,314.726 976,311.5C 976.667,293.167 976.667,274.833 976,256.5C 975.041,254.047 973.874,251.714 972.5,249.5C 990.993,248.503 1009.66,248.17 1028.5,248.5C 1028.82,254.69 1028.49,260.69 1027.5,266.5 Z"/></g>
<g><path style="opacity:1" fill="#f71615" d="M 1064.5,248.5 C 1064.74,250.404 1065.74,251.738 1067.5,252.5C 1069.63,254.091 1071.3,256.091 1072.5,258.5C 1072.43,260.027 1073.09,261.027 1074.5,261.5C 1077.85,264.851 1080.85,268.518 1083.5,272.5C 1083.43,274.027 1084.09,275.027 1085.5,275.5C 1087.63,277.091 1089.3,279.091 1090.5,281.5C 1090.43,283.027 1091.09,284.027 1092.5,284.5C 1093.5,284.833 1094.17,285.5 1094.5,286.5C 1094.37,287.376 1094.7,288.043 1095.5,288.5C 1096.82,278.341 1096.82,268.341 1095.5,258.5C 1094.47,255.43 1093.13,252.43 1091.5,249.5C 1099.5,248.167 1107.5,248.167 1115.5,249.5C 1114.17,252.167 1112.83,254.833 1111.5,257.5C 1110.5,279.66 1110.17,301.994 1110.5,324.5C 1108.5,324.5 1106.5,324.5 1104.5,324.5C 1096.21,324.101 1089.71,320.434 1085,313.5C 1075.62,301.624 1066.45,289.624 1057.5,277.5C 1057.22,276.711 1056.72,276.044 1056,275.5C 1055.17,287.008 1055.34,298.341 1056.5,309.5C 1057.17,311.5 1057.83,313.5 1058.5,315.5C 1058.43,317.027 1059.09,318.027 1060.5,318.5C 1061.29,318.783 1061.96,319.283 1062.5,320C 1053.51,320.5 1044.51,320.666 1035.5,320.5C 1036.11,319.609 1036.44,318.609 1036.5,317.5C 1038.18,315.473 1039.35,313.139 1040,310.5C 1040.67,292.833 1040.67,275.167 1040,257.5C 1039.08,254.664 1037.91,251.998 1036.5,249.5C 1045.65,248.506 1054.99,248.173 1064.5,248.5 Z"/></g>
<g><path style="opacity:1" fill="#fa1615" d="M 1181.5,248.5 C 1180.77,253.357 1179.44,258.024 1177.5,262.5C 1176.83,262.833 1176.17,263.167 1175.5,263.5C 1170.2,262.725 1164.87,262.392 1159.5,262.5C 1159.33,277.504 1159.5,292.504 1160,307.5C 1160.45,312.57 1162.62,316.736 1166.5,320C 1154.17,320.667 1141.83,320.667 1129.5,320C 1131.88,317.401 1133.88,314.567 1135.5,311.5C 1136.5,295.008 1136.83,278.342 1136.5,261.5C 1132.63,261.185 1128.96,261.518 1125.5,262.5C 1125.17,262.5 1124.83,262.5 1124.5,262.5C 1121.83,262.5 1119.17,262.5 1116.5,262.5C 1116.5,261.5 1116.5,260.5 1116.5,259.5C 1117.13,255.952 1118.13,252.619 1119.5,249.5C 1140.09,248.512 1160.76,248.179 1181.5,248.5 Z"/></g>
<g><path style="opacity:0.875" fill="#72140f" d="M 1064.5,248.5 C 1066.26,249.262 1067.26,250.596 1067.5,252.5C 1065.74,251.738 1064.74,250.404 1064.5,248.5 Z"/></g>
<g><path style="opacity:0.788" fill="#70160e" d="M 959.5,255.5 C 960.906,255.973 961.573,256.973 961.5,258.5C 960.094,258.027 959.427,257.027 959.5,255.5 Z"/></g>
<g><path style="opacity:0.482" fill="#67110c" d="M 701.5,257.5 C 702.906,257.973 703.573,258.973 703.5,260.5C 702.094,260.027 701.427,259.027 701.5,257.5 Z"/></g>
<g><path style="opacity:0.749" fill="#69150d" d="M 1072.5,258.5 C 1073.91,258.973 1074.57,259.973 1074.5,261.5C 1073.09,261.027 1072.43,260.027 1072.5,258.5 Z"/></g>
<g><path style="opacity:0.9" fill="#a31110" d="M 677.5,250.5 C 676.693,256.464 676.36,262.464 676.5,268.5C 675.836,266.19 675.503,263.69 675.5,261C 675.304,257.195 675.97,253.695 677.5,250.5 Z"/></g>
<g><path style="opacity:0.384" fill="#600807" d="M 924.5,260.5 C 924.183,276.244 924.516,291.911 925.5,307.5C 924.169,300.03 923.502,292.196 923.5,284C 923.5,275.993 923.834,268.159 924.5,260.5 Z"/></g>
<g><path style="opacity:0.553" fill="#830c0c" d="M 1111.5,257.5 C 1111.5,280.167 1111.5,302.833 1111.5,325.5C 1108.94,325.802 1106.61,325.468 1104.5,324.5C 1106.5,324.5 1108.5,324.5 1110.5,324.5C 1110.17,301.994 1110.5,279.66 1111.5,257.5 Z"/></g>
<g><path style="opacity:0.647" fill="#a20f0e" d="M 1095.5,258.5 C 1096.82,268.341 1096.82,278.341 1095.5,288.5C 1094.7,288.043 1094.37,287.376 1094.5,286.5C 1095.49,277.348 1095.83,268.015 1095.5,258.5 Z"/></g>
<g><path style="opacity:0.69" fill="#a10d0e" d="M 758.5,262.5 C 761.625,261.521 764.958,261.187 768.5,261.5C 768.83,277.342 768.496,293.009 767.5,308.5C 767.5,293.167 767.5,277.833 767.5,262.5C 764.5,262.5 761.5,262.5 758.5,262.5 Z"/></g>
<g><path style="opacity:0.443" fill="#6b0c0a" d="M 802.5,262.5 C 798.833,262.5 795.167,262.5 791.5,262.5C 791.5,278.167 791.5,293.833 791.5,309.5C 790.504,293.675 790.17,277.675 790.5,261.5C 794.702,261.183 798.702,261.517 802.5,262.5 Z"/></g>
<g><path style="opacity:0.925" fill="#79130f" d="M 809.5,260.5 C 809.688,262.103 809.188,263.437 808,264.5C 806.052,263.891 804.218,263.224 802.5,262.5C 805.211,262.815 807.544,262.148 809.5,260.5 Z"/></g>
<g><path style="opacity:0.988" fill="#77130f" d="M 1116.5,259.5 C 1116.5,260.5 1116.5,261.5 1116.5,262.5C 1119.17,262.5 1121.83,262.5 1124.5,262.5C 1121.64,263.244 1118.64,263.911 1115.5,264.5C 1114.75,262.711 1115.09,261.044 1116.5,259.5 Z"/></g>
<g><path style="opacity:0.192" fill="#390505" d="M 1125.5,262.5 C 1128.96,261.518 1132.63,261.185 1136.5,261.5C 1136.83,278.342 1136.5,295.008 1135.5,311.5C 1135.5,295.167 1135.5,278.833 1135.5,262.5C 1132.17,262.5 1128.83,262.5 1125.5,262.5 Z"/></g>
<g><path style="opacity:0.035" fill="#250c03" d="M 1177.5,262.5 C 1177.29,264.424 1176.62,264.757 1175.5,263.5C 1176.17,263.167 1176.83,262.833 1177.5,262.5 Z"/></g>
<g><path style="opacity:0.918" fill="#73170f" d="M 940.5,265.5 C 942.048,265.821 942.715,266.821 942.5,268.5C 941.599,267.71 940.932,266.71 940.5,265.5 Z"/></g>
<g><path style="opacity:0.69" fill="#55140b" d="M 1204.5,265.5 C 1206.17,266.5 1207.5,267.833 1208.5,269.5C 1206.17,269.167 1204.83,267.833 1204.5,265.5 Z"/></g>
<g><path style="opacity:0.694" fill="#60140c" d="M 1083.5,272.5 C 1084.91,272.973 1085.57,273.973 1085.5,275.5C 1084.09,275.027 1083.43,274.027 1083.5,272.5 Z"/></g>
<g><path style="opacity:0.145" fill="#210402" d="M 1000.5,274.5 C 1008.17,274.5 1015.83,274.5 1023.5,274.5C 1023.67,281.175 1023.5,287.842 1023,294.5C 1022.01,293.934 1021.17,293.267 1020.5,292.5C 1022.45,287.265 1023.12,281.598 1022.5,275.5C 1014.98,275.825 1007.65,275.492 1000.5,274.5 Z"/></g>
<g><path style="opacity:0.337" fill="#560707" d="M 1057.5,277.5 C 1056.51,287.987 1056.17,298.654 1056.5,309.5C 1055.34,298.341 1055.17,287.008 1056,275.5C 1056.72,276.044 1057.22,276.711 1057.5,277.5 Z"/></g>
<g><path style="opacity:0.706" fill="#5f150c" d="M 1242.5,276.5 C 1242.83,277.833 1243.17,279.167 1243.5,280.5C 1242.16,279.685 1241.16,278.518 1240.5,277C 1241.09,276.536 1241.76,276.369 1242.5,276.5 Z"/></g>
<g><path style="opacity:0.902" fill="#6d170f" d="M 1226.5,277.5 C 1227.71,277.932 1228.71,278.599 1229.5,279.5C 1227.82,279.715 1226.82,279.048 1226.5,277.5 Z"/></g>
<g><path style="opacity:0.592" fill="#59130a" d="M 682.5,280.5 C 684.027,280.427 685.027,281.094 685.5,282.5C 683.973,282.573 682.973,281.906 682.5,280.5 Z"/></g>
<g><path style="opacity:0.816" fill="#711610" d="M 1243.5,280.5 C 1245.12,281.038 1246.78,281.371 1248.5,281.5C 1246.54,284.059 1244.88,283.726 1243.5,280.5 Z"/></g>
<g><path style="opacity:0.722" fill="#64140d" d="M 1090.5,281.5 C 1091.91,281.973 1092.57,282.973 1092.5,284.5C 1091.09,284.027 1090.43,283.027 1090.5,281.5 Z"/></g>
<g><path style="opacity:0.553" fill="#620d0a" d="M 672.5,300.5 C 671.662,300.842 671.328,301.508 671.5,302.5C 670.402,301.399 670.235,300.066 671,298.5C 671.717,299.044 672.217,299.711 672.5,300.5 Z"/></g>
<g><path style="opacity:0.8" fill="#63110e" d="M 1181.5,300.5 C 1180.57,301.568 1180.23,302.901 1180.5,304.5C 1179.69,303.003 1179.03,301.336 1178.5,299.5C 1179.86,298.335 1180.86,298.668 1181.5,300.5 Z"/></g>
<g><path style="opacity:0.969" fill="#78140f" d="M 1034.5,305.5 C 1034.5,304.5 1034.5,303.5 1034.5,302.5C 1033.5,302.5 1032.5,302.5 1031.5,302.5C 1032.89,300.7 1034.56,300.366 1036.5,301.5C 1036.01,303.026 1035.34,304.359 1034.5,305.5 Z"/></g>
<g><path style="opacity:0.302" fill="#4c0f08" d="M 1001.5,289.5 C 1001.5,294.833 1001.5,300.167 1001.5,305.5C 1007.17,305.5 1012.83,305.5 1018.5,305.5C 1012.69,306.49 1006.69,306.823 1000.5,306.5C 1000.18,300.642 1000.51,294.975 1001.5,289.5 Z"/></g>
<g><path style="opacity:0.294" fill="#6e0b0b" d="M 1213.5,308.5 C 1213.39,309.117 1213.06,309.617 1212.5,310C 1208.64,310.81 1204.98,310.643 1201.5,309.5C 1205.57,309.693 1209.57,309.36 1213.5,308.5 Z"/></g>
<g><path style="opacity:0.82" fill="#901611" d="M 472.5,309.5 C 470.5,313.5 467.5,316.5 463.5,318.5C 466.167,315.167 469.167,312.167 472.5,309.5 Z"/></g>
<g><path style="opacity:0.443" fill="#6d0c0b" d="M 864.5,320.5 C 863.833,319.167 863.167,317.833 862.5,316.5C 862.783,315.711 863.283,315.044 864,314.5C 864.495,316.473 864.662,318.473 864.5,320.5 Z"/></g>
<g><path style="opacity:0.792" fill="#74130f" d="M 793.5,315.5 C 794.906,315.973 795.573,316.973 795.5,318.5C 794.094,318.027 793.427,317.027 793.5,315.5 Z"/></g>
<g><path style="opacity:0.737" fill="#69140d" d="M 1058.5,315.5 C 1059.91,315.973 1060.57,316.973 1060.5,318.5C 1059.09,318.027 1058.43,317.027 1058.5,315.5 Z"/></g>
<g><path style="opacity:0.686" fill="#69150d" d="M 1036.5,317.5 C 1036.44,318.609 1036.11,319.609 1035.5,320.5C 1033.45,319.678 1033.78,318.678 1036.5,317.5 Z"/></g>
<g><path style="opacity:1" fill="#f21615" d="M 734.5,347.5 C 734.666,353.509 734.499,359.509 734,365.5C 733.329,364.748 732.496,364.414 731.5,364.5C 722.546,359.572 713.212,358.572 703.5,361.5C 701.914,363.173 701.247,365.173 701.5,367.5C 701.427,369.027 702.094,370.027 703.5,370.5C 712.345,375.847 721.679,380.347 731.5,384C 743.567,392.417 747.067,403.583 742,417.5C 736.419,427.74 727.919,434.24 716.5,437C 704.812,438.513 693.145,438.179 681.5,436C 679.273,435.879 677.44,435.046 676,433.5C 674.022,426.589 672.522,419.589 671.5,412.5C 671.328,411.508 671.662,410.842 672.5,410.5C 683.433,418.643 695.766,422.476 709.5,422C 717.869,419.987 719.536,415.654 714.5,409C 706.712,405.606 699.045,401.939 691.5,398C 689.237,396.383 687.237,394.55 685.5,392.5C 685.027,391.094 684.027,390.427 682.5,390.5C 679.176,387.172 677.176,383.172 676.5,378.5C 676.36,372.464 676.693,366.464 677.5,360.5C 677.328,359.508 677.662,358.842 678.5,358.5C 679.906,358.027 680.573,357.027 680.5,355.5C 683.041,351.293 686.708,348.627 691.5,347.5C 694.152,347.59 696.485,346.924 698.5,345.5C 710.505,343.274 722.505,343.941 734.5,347.5 Z"/></g>
<g><path style="opacity:0.949" fill="#931310" d="M 698.5,345.5 C 696.485,346.924 694.152,347.59 691.5,347.5C 693.515,346.076 695.848,345.41 698.5,345.5 Z"/></g>
<g><path style="opacity:0.522" fill="#760d0b" d="M 734.5,347.5 C 735.654,353.987 735.821,360.654 735,367.5C 733.482,366.837 732.315,365.837 731.5,364.5C 732.496,364.414 733.329,364.748 734,365.5C 734.499,359.509 734.666,353.509 734.5,347.5 Z"/></g>
<g><path style="opacity:1" fill="#ef1615" d="M 827.5,369.5 C 827.427,371.027 828.094,372.027 829.5,372.5C 838.662,393.005 834.328,410.171 816.5,424C 799.978,432.26 783.311,432.593 766.5,425C 752.381,415.684 746.547,402.517 749,385.5C 753.796,367.705 765.296,357.205 783.5,354C 795.877,352.009 807.544,354.009 818.5,360C 822.38,362.379 825.38,365.546 827.5,369.5 Z M 778.5,407.5 C 778.573,405.973 777.906,404.973 776.5,404.5C 771.511,393.534 771.345,382.534 776,371.5C 785.979,361.889 795.312,362.555 804,373.5C 811.298,385.885 811.965,398.551 806,411.5C 795.572,418.986 786.405,417.653 778.5,407.5 Z"/></g>
<g><path style="opacity:1" fill="#ed1615" d="M 902.5,355.5 C 903.713,357.892 904.379,360.559 904.5,363.5C 904.497,366.025 904.163,368.359 903.5,370.5C 876.18,359.066 863.013,368.066 864,397.5C 864.813,399.436 865.313,401.436 865.5,403.5C 865.427,405.027 866.094,406.027 867.5,406.5C 876.498,416.273 887.498,419.44 900.5,416C 904.068,415.312 907.401,414.145 910.5,412.5C 911.833,412.5 912.5,413.167 912.5,414.5C 910.18,419.14 907.847,423.807 905.5,428.5C 893.766,431.845 882.1,432.178 870.5,429.5C 868.485,428.076 866.152,427.41 863.5,427.5C 844.457,419.093 836.624,404.426 840,383.5C 846.625,362.671 860.958,352.671 883,353.5C 889.575,353.559 896.075,354.226 902.5,355.5 Z"/></g>
<g><path style="opacity:0.522" fill="#7c0b0a" d="M 946.5,357.5 C 935.167,356.167 923.833,356.167 912.5,357.5C 911.957,357.44 911.624,357.107 911.5,356.5C 923.5,355.167 935.5,355.167 947.5,356.5C 947.376,357.107 947.043,357.44 946.5,357.5 Z"/></g>
<g><path style="opacity:0.522" fill="#7d0b0b" d="M 1004.5,374.5 C 1005.49,368.69 1005.82,362.69 1005.5,356.5C 986.659,356.17 967.993,356.503 949.5,357.5C 948.957,357.44 948.624,357.107 948.5,356.5C 967.822,355.5 987.155,355.167 1006.5,355.5C 1006.83,362.2 1006.5,368.866 1005.5,375.5C 1004.89,375.376 1004.56,375.043 1004.5,374.5 Z"/></g>
<g><path style="opacity:0.522" fill="#820a0b" d="M 1068.5,355.5 C 1050.26,356.179 1031.93,356.846 1013.5,357.5C 1031.47,355.513 1049.8,354.846 1068.5,355.5 Z"/></g>
<g><path style="opacity:0.522" fill="#7f0b0a" d="M 1075.5,355.5 C 1084.9,354.862 1093.9,355.529 1102.5,357.5C 1093.4,356.859 1084.4,356.192 1075.5,355.5 Z"/></g>
<g><path style="opacity:0.522" fill="#7d0a0b" d="M 1146.5,357.5 C 1142.68,356.834 1138.68,356.501 1134.5,356.5C 1130.11,356.509 1126.11,357.176 1122.5,358.5C 1121.6,357.791 1121.26,356.791 1121.5,355.5C 1130.19,355.169 1138.86,355.502 1147.5,356.5C 1147.38,357.107 1147.04,357.44 1146.5,357.5 Z"/></g>
<g><path style="opacity:0.443" fill="#670a09" d="M 902.5,355.5 C 903.5,355.5 904.5,355.5 905.5,355.5C 905.828,360.875 905.495,366.208 904.5,371.5C 903.893,371.376 903.56,371.043 903.5,370.5C 904.163,368.359 904.497,366.025 904.5,363.5C 904.379,360.559 903.713,357.892 902.5,355.5 Z"/></g>
<g><path style="opacity:1" fill="#f51515" d="M 946.5,357.5 C 944.745,360.009 943.245,362.676 942,365.5C 941.333,383.5 941.333,401.5 942,419.5C 942.848,422.698 944.348,425.531 946.5,428C 935.505,428.5 924.505,428.667 913.5,428.5C 914.11,427.609 914.443,426.609 914.5,425.5C 915.32,423.188 916.153,420.854 917,418.5C 917.807,400.123 917.64,381.79 916.5,363.5C 916.715,361.821 916.048,360.821 914.5,360.5C 913.833,359.5 913.167,358.5 912.5,357.5C 923.833,356.167 935.167,356.167 946.5,357.5 Z"/></g>
<g><path style="opacity:1" fill="#f71515" d="M 1004.5,374.5 C 1002.47,372.82 1000.14,371.653 997.5,371C 990.842,370.5 984.175,370.334 977.5,370.5C 977.5,374.5 977.5,378.5 977.5,382.5C 984.648,383.492 991.981,383.825 999.5,383.5C 1000.12,389.598 999.45,395.265 997.5,400.5C 996.118,399.199 994.452,398.366 992.5,398C 987.845,397.501 983.179,397.334 978.5,397.5C 977.511,402.975 977.178,408.642 977.5,414.5C 983.69,414.823 989.69,414.49 995.5,413.5C 999.91,412.821 1004.24,411.821 1008.5,410.5C 1009.5,410.5 1010.5,410.5 1011.5,410.5C 1011.5,411.5 1011.5,412.5 1011.5,413.5C 1010.14,418.427 1008.47,423.26 1006.5,428C 986.833,428.667 967.167,428.667 947.5,428C 949.969,425.559 951.802,422.726 953,419.5C 953.667,401.167 953.667,382.833 953,364.5C 952.041,362.047 950.874,359.714 949.5,357.5C 967.993,356.503 986.659,356.17 1005.5,356.5C 1005.82,362.69 1005.49,368.69 1004.5,374.5 Z"/></g>
<g><path style="opacity:1" fill="#f61615" d="M 1068.5,355.5 C 1070.83,355.5 1073.17,355.5 1075.5,355.5C 1084.4,356.192 1093.4,356.859 1102.5,357.5C 1106.32,365.807 1110.15,374.141 1114,382.5C 1116.33,377.833 1118.67,373.167 1121,368.5C 1122.2,365.274 1122.7,361.941 1122.5,358.5C 1126.11,357.176 1130.11,356.509 1134.5,356.5C 1138.68,356.501 1142.68,356.834 1146.5,357.5C 1138.59,371.928 1130.42,386.261 1122,400.5C 1121.33,406.833 1121.33,413.167 1122,419.5C 1123.2,422.726 1125.03,425.559 1127.5,428C 1115.17,428.667 1102.83,428.667 1090.5,428C 1093.11,426.062 1094.94,423.562 1096,420.5C 1097.36,414.215 1097.69,407.882 1097,401.5C 1092.49,393.14 1087.99,384.806 1083.5,376.5C 1083.71,374.821 1083.05,373.821 1081.5,373.5C 1079.9,369.905 1077.9,366.571 1075.5,363.5C 1074.45,361.067 1073.79,361.067 1073.5,363.5C 1073.23,365.965 1072.57,368.299 1071.5,370.5C 1070.83,370.833 1070.17,371.167 1069.5,371.5C 1064.2,370.725 1058.87,370.392 1053.5,370.5C 1053.33,385.504 1053.5,400.504 1054,415.5C 1054.45,420.57 1056.62,424.736 1060.5,428C 1048.17,428.667 1035.83,428.667 1023.5,428C 1025.88,425.401 1027.88,422.567 1029.5,419.5C 1030.5,403.008 1030.83,386.342 1030.5,369.5C 1026.63,369.185 1022.96,369.518 1019.5,370.5C 1019.17,370.5 1018.83,370.5 1018.5,370.5C 1015.83,370.5 1013.17,370.5 1010.5,370.5C 1010.5,369.5 1010.5,368.5 1010.5,367.5C 1011.13,363.952 1012.13,360.619 1013.5,357.5C 1031.93,356.846 1050.26,356.179 1068.5,355.5 Z"/></g>
<g><path style="opacity:0.396" fill="#5a110b" d="M 680.5,355.5 C 680.573,357.027 679.906,358.027 678.5,358.5C 678.427,356.973 679.094,355.973 680.5,355.5 Z"/></g>
<g><path style="opacity:0.835" fill="#63150e" d="M 914.5,360.5 C 916.048,360.821 916.715,361.821 916.5,363.5C 915.599,362.71 914.932,361.71 914.5,360.5 Z"/></g>
<g><path style="opacity:0.004" fill="#180301" d="M 1075.5,363.5 C 1074.83,363.5 1074.17,363.5 1073.5,363.5C 1073.79,361.067 1074.45,361.067 1075.5,363.5 Z"/></g>
<g><path style="opacity:0.482" fill="#67110c" d="M 701.5,367.5 C 702.906,367.973 703.573,368.973 703.5,370.5C 702.094,370.027 701.427,369.027 701.5,367.5 Z"/></g>
<g><path style="opacity:0.9" fill="#a31110" d="M 677.5,360.5 C 676.693,366.464 676.36,372.464 676.5,378.5C 675.836,376.19 675.503,373.69 675.5,371C 675.304,367.195 675.97,363.695 677.5,360.5 Z"/></g>
<g><path style="opacity:0.988" fill="#77130f" d="M 1010.5,367.5 C 1010.5,368.5 1010.5,369.5 1010.5,370.5C 1013.17,370.5 1015.83,370.5 1018.5,370.5C 1015.64,371.244 1012.64,371.911 1009.5,372.5C 1008.75,370.711 1009.09,369.044 1010.5,367.5 Z"/></g>
<g><path style="opacity:0.192" fill="#390505" d="M 1019.5,370.5 C 1022.96,369.518 1026.63,369.185 1030.5,369.5C 1030.83,386.342 1030.5,403.008 1029.5,419.5C 1029.5,403.167 1029.5,386.833 1029.5,370.5C 1026.17,370.5 1022.83,370.5 1019.5,370.5 Z"/></g>
<g><path style="opacity:0.459" fill="#65110c" d="M 827.5,369.5 C 828.906,369.973 829.573,370.973 829.5,372.5C 828.094,372.027 827.427,371.027 827.5,369.5 Z"/></g>
<g><path style="opacity:0.035" fill="#250c03" d="M 1071.5,370.5 C 1071.29,372.424 1070.62,372.757 1069.5,371.5C 1070.17,371.167 1070.83,370.833 1071.5,370.5 Z"/></g>
<g><path style="opacity:0.902" fill="#6e170f" d="M 1081.5,373.5 C 1083.05,373.821 1083.71,374.821 1083.5,376.5C 1082.6,375.71 1081.93,374.71 1081.5,373.5 Z"/></g>
<g><path style="opacity:0.145" fill="#210402" d="M 977.5,382.5 C 985.167,382.5 992.833,382.5 1000.5,382.5C 1000.67,389.175 1000.5,395.842 1000,402.5C 999.005,401.934 998.172,401.267 997.5,400.5C 999.45,395.265 1000.12,389.598 999.5,383.5C 991.981,383.825 984.648,383.492 977.5,382.5 Z"/></g>
<g><path style="opacity:0.592" fill="#59130a" d="M 682.5,390.5 C 684.027,390.427 685.027,391.094 685.5,392.5C 683.973,392.573 682.973,391.906 682.5,390.5 Z"/></g>
<g><path style="opacity:0.424" fill="#63100b" d="M 865.5,403.5 C 866.906,403.973 867.573,404.973 867.5,406.5C 866.094,406.027 865.427,405.027 865.5,403.5 Z"/></g>
<g><path style="opacity:0.51" fill="#6c110c" d="M 776.5,404.5 C 777.906,404.973 778.573,405.973 778.5,407.5C 777.094,407.027 776.427,406.027 776.5,404.5 Z"/></g>
<g><path style="opacity:0.553" fill="#620d0a" d="M 672.5,410.5 C 671.662,410.842 671.328,411.508 671.5,412.5C 670.402,411.399 670.235,410.066 671,408.5C 671.717,409.044 672.217,409.711 672.5,410.5 Z"/></g>
<g><path style="opacity:0.969" fill="#78140f" d="M 1011.5,413.5 C 1011.5,412.5 1011.5,411.5 1011.5,410.5C 1010.5,410.5 1009.5,410.5 1008.5,410.5C 1009.89,408.7 1011.56,408.366 1013.5,409.5C 1013.01,411.026 1012.34,412.359 1011.5,413.5 Z"/></g>
<g><path style="opacity:0.757" fill="#65120d" d="M 912.5,414.5 C 912.5,413.167 911.833,412.5 910.5,412.5C 911.315,411.163 912.482,410.163 914,409.5C 914.599,411.535 914.099,413.201 912.5,414.5 Z"/></g>
<g><path style="opacity:0.302" fill="#4c0f08" d="M 978.5,397.5 C 978.5,402.833 978.5,408.167 978.5,413.5C 984.167,413.5 989.833,413.5 995.5,413.5C 989.69,414.49 983.69,414.823 977.5,414.5C 977.178,408.642 977.511,402.975 978.5,397.5 Z"/></g>
<g><path style="opacity:0.369" fill="#5d0d09" d="M 305.5,413.5 C 306.401,414.29 307.068,415.29 307.5,416.5C 305.952,416.179 305.285,415.179 305.5,413.5 Z"/></g>
<g><path style="opacity:0.792" fill="#72130f" d="M 914.5,425.5 C 914.443,426.609 914.11,427.609 913.5,428.5C 912.285,427.221 912.618,426.221 914.5,425.5 Z"/></g>
<g><path style="opacity:0.949" fill="#8d1310" d="M 863.5,427.5 C 866.152,427.41 868.485,428.076 870.5,429.5C 867.848,429.59 865.515,428.924 863.5,427.5 Z"/></g>
</svg>
